<svg xmlns="http://www.w3.org/2000/svg" viewBox="0 0 1200 1500" role="img" aria-labelledby="title desc">
  <title id="title">创作桌面</title>
  <desc id="desc">桌面、相机、笔记本和一杯咖啡组成的博客创作空间。</desc>
  <defs>
    <linearGradient id="wall" x1="0" x2="1" y1="0" y2="1">
      <stop offset="0%" stop-color="#f4eee3"/>
      <stop offset="100%" stop-color="#dde9e4"/>
    </linearGradient>
    <linearGradient id="desk" x1="0" x2="1" y1="0" y2="1">
      <stop offset="0%" stop-color="#c79253"/>
      <stop offset="100%" stop-color="#8a5734"/>
    </linearGradient>
    <filter id="softShadow" x="-20%" y="-20%" width="140%" height="140%">
      <feDropShadow dx="0" dy="24" stdDeviation="24" flood-color="#1d2528" flood-opacity="0.24"/>
    </filter>
  </defs>
  <rect width="1200" height="1500" fill="url(#wall)"/>
  <circle cx="950" cy="220" r="170" fill="#eebf7f" opacity="0.55"/>
  <path d="M0 640 C260 570 390 710 650 640 C870 580 1010 610 1200 535 L1200 1500 L0 1500 Z" fill="#dfeee9"/>
  <rect x="92" y="710" width="1016" height="610" rx="38" fill="url(#desk)" filter="url(#softShadow)"/>
  <rect x="170" y="785" width="438" height="318" rx="22" fill="#f7f4ef"/>
  <path d="M210 865 H560 M210 930 H520 M210 995 H470" stroke="#879092" stroke-width="16" stroke-linecap="round"/>
  <rect x="646" y="798" width="310" height="228" rx="30" fill="#1d2528"/>
  <rect x="690" y="842" width="222" height="140" rx="18" fill="#0e766d"/>
  <circle cx="802" cy="912" r="54" fill="#eef8f6"/>
  <circle cx="802" cy="912" r="31" fill="#172124"/>
  <circle cx="894" cy="830" r="14" fill="#bb5464"/>
  <rect x="692" y="1070" width="280" height="110" rx="24" fill="#f0eadf"/>
  <rect x="724" y="1098" width="216" height="16" rx="8" fill="#b67a22"/>
  <rect x="724" y="1132" width="160" height="16" rx="8" fill="#b67a22" opacity="0.65"/>
  <circle cx="315" cy="1194" r="68" fill="#172124"/>
  <circle cx="315" cy="1194" r="42" fill="#f7f4ef"/>
  <path d="M380 1194 H516" stroke="#172124" stroke-width="24" stroke-linecap="round"/>
  <rect x="808" y="1160" width="136" height="98" rx="30" fill="#f7f4ef"/>
  <path d="M944 1195 C1010 1180 1010 1240 944 1228" fill="none" stroke="#f7f4ef" stroke-width="22"/>
  <path d="M215 675 C240 610 305 605 338 652 C384 606 456 638 454 710" fill="none" stroke="#0e766d" stroke-width="18" stroke-linecap="round"/>
  <text x="170" y="520" fill="#1d2528" font-family="Arial, sans-serif" font-size="82" font-weight="800">Blog Studio</text>
  <text x="174" y="584" fill="#667274" font-family="Arial, sans-serif" font-size="32">words, images and video</text>
</svg>
